{
  "title": "The Purge Election Year 2016 1080p HC WEBRip x264 AAC2 0-SS",
  "uid": 15323498,
  "size": 3922567534,
  "categoryP": "video",
  "categoryS": "hd___movies",
  "magnet": "?xt=urn:btih:dca04ef7c090307d080190b3e17373e842ea12bc&amp;dn=The+Purge+Election+Year+2016+1080p+HC+WEBRip+x264+AAC2+0-SS&amp;tr=udp%3A%2F%2Ftracker.leechers-paradise.org%3A6969&amp;tr=udp%3A%2F%2Fzer0day.ch%3A1337&amp;tr=udp%3A%2F%2Fopen.demonii.com%3A1337&amp;tr=udp%3A%2F%2Ftracker.coppersurfer.tk%3A6969&amp;tr=udp%3A%2F%2Fexodus.desync.com%3A6969",
  "seeders": 45,
  "leechers": 8,
  "uploader": "makintos13",
  "files": 1,
  "time": 1468671455,
  "description": "screens:\r\n \nhttps://imgmak.com/Td5\r\n \nhttps://imgmak.com/Td1\r\n \nhttps://imgmak.com/TdU\r\n\r\n \nhttps://imgmak.com/Td3\r\n \nhttps://imgmak.com/TdG\r\n \nhttps://imgmak.com/TdH\r\n\r\nThe Purge Election Year 2016 1080p HC WEBRip x264 AAC2 0-SS\r\n\r\nID                                       : 1\r\nFormat                                   : AVC\r\nFormat/Info                              : Advanced Video Codec\r\nFormat profile                           :   \r\nFormat settings, CABAC                   : Yes\r\nFormat settings, ReFrames                : 4 frames\r\nCodec ID                                 : avc1\r\nCodec ID/Info                            : Advanced Video Coding\r\nDuration                                 : 1h 52mn\r\nBit rate                                 : 4 500 Kbps\r\nWidth                                    : 1 920 pixels\r\nHeight                                   : 796 pixels\r\nDisplay aspect ratio                     : 2.40:1\r\nFrame rate mode                          : Constant\r\nFrame rate                               : 23.976 (23976/1000) fps\r\nColor space                              : YUV\r\nChroma subsampling                       : 4:2:0\r\nBit depth                                : 8 bits\r\nScan type                                : Progressive\r\nBits/(Pixel*Frame)                       : 0.123\r\nStream size                              : 3.47 GiB (95%)\r\n\r\nAudio\r\nID                                       : 2\r\nFormat                                   : AAC\r\nFormat/Info                              : Advanced Audio Codec\r\nFormat profile                           : LC\r\nCodec ID                                 : 40\r\nDuration                                 : 1h 52mn\r\nBit rate mode                            : Constant\r\nBit rate                                 : 224 Kbps\r\nChannel(s)                               : 2 channels\r\nChannel positions                        : Front: L R\r\nSampling rate                            : 48.0 KHz\r\nFrame rate                               : 46.875 fps (1024 spf)\r\nCompression mode                         : Lossy\r\nStream size                              : 180 MiB (5%)",
  "parsed": {
    "xt": "urn:btih:dca04ef7c090307d080190b3e17373e842ea12bc",
    "dn": "The Purge Election Year 2016 1080p HC WEBRip x264 AAC2 0-SS",
    "tr": [
      "udp://exodus.desync.com:6969",
      "udp://open.demonii.com:1337",
      "udp://tracker.coppersurfer.tk:6969",
      "udp://tracker.leechers-paradise.org:6969",
      "udp://zer0day.ch:1337"
    ],
    "infoHash": "dca04ef7c090307d080190b3e17373e842ea12bc",
    "infoHashBuffer": {
      "type": "Buffer",
      "data": [
        220,
        160,
        78,
        247,
        192,
        144,
        48,
        125,
        8,
        1,
        144,
        179,
        225,
        115,
        115,
        232,
        66,
        234,
        18,
        188
      ]
    },
    "name": "The Purge Election Year 2016 1080p HC WEBRip x264 AAC2 0-SS",
    "announce": [
      "udp://exodus.desync.com:6969",
      "udp://open.demonii.com:1337",
      "udp://tracker.coppersurfer.tk:6969",
      "udp://tracker.leechers-paradise.org:6969",
      "udp://zer0day.ch:1337"
    ],
    "urlList": []
  },
  "previous": 154,
  "peers": 171,
  "last_updated": "2016-12-27T14:56:12.718Z"
}